# xmcd
#
# Track frame offsets:
#	150
#	10200
#	20045
#	33647
#	42780
#	56115
#	67652
#	86800
#	98592
#	110612
#	125200
#
# Disc length: 1794 seconds
#
# Revision: 0
# Processed by: cddbd v1.4PL0 Copyright (c) Steve Scherf et al.
# Submitted via: EasyCDDAExtractor 4.6.9.1
#
DISCID=9207000b
DTITLE=Tom T. Hall - Greatest Hits (Vol. II)
DYEAR=1975
DGENRE=Country
TTITLE0=Country Is
TTITLE1=I Love
TTITLE2=The Little Lady Preacher
TTITLE3=Sneaky Snake
TTITLE4=I Like Beer
TTITLE5=Ravishing Ruby
TTITLE6=Old Dogs, Children And Watermelon Wine
TTITLE7=Deal
TTITLE8=Who's Gonna Feed Them Hogs
TTITLE9=That Song Is Driving Me Crazy
TTITLE10=I Care
EXTD=
EXTT0=
EXTT1=
EXTT2=
EXTT3=
EXTT4=
EXTT5=
EXTT6=
EXTT7=
EXTT8=
EXTT9=
EXTT10=
PLAYORDER=
